<?xml version="1.0" standalone="no"?>
<!DOCTYPE svg PUBLIC "-//W3C//DTD SVG 20010904//EN"
 "http://www.w3.org/TR/2001/REC-SVG-20010904/DTD/svg10.dtd">
<svg version="1.0" xmlns="http://www.w3.org/2000/svg"
 width="624.000000pt" height="624.000000pt" viewBox="0 0 624.000000 624.000000"
 preserveAspectRatio="xMidYMid meet">
<metadata>
Created by potrace 1.14, written by Peter Selinger 2001-2017
</metadata>
<g transform="translate(0.000000,624.000000) scale(0.100000,-0.100000)"
fill="#000000" stroke="none">
<path d="M2369 6237 c-3 -4 -7 -86 -13 -242 -3 -82 -8 -206 -11 -275 -3 -69
-7 -190 -10 -270 -3 -80 -8 -197 -11 -260 -3 -63 -7 -171 -9 -240 -2 -69 -7
-186 -10 -260 -11 -263 -27 -688 -28 -727 0 -20 -5 -33 -13 -33 -7 0 -14 -4
-16 -8 -1 -5 -59 -47 -128 -94 -105 -72 -166 -113 -350 -238 -8 -6 -127 -87
-263 -180 -137 -94 -252 -170 -257 -170 -5 0 -10 -4 -12 -8 -3 -8 -117 -87
-480 -332 -161 -110 -229 -160 -214 -160 5 0 4 -6 -2 -12 -49 -61 -168 -350
-177 -433 -2 -16 -8 -50 -14 -75 -10 -44 -8 -254 2 -295 3 -11 15 -49 26 -85
85 -269 379 -478 711 -506 47 -3 70 2 155 35 207 81 423 166 716 280 58 22
110 41 117 41 7 0 12 5 12 10 0 6 7 10 16 10 13 0 50 14 199 75 11 5 22 9 25
9 7 1 197 75 235 91 17 7 59 24 95 38 36 14 153 60 260 102 107 43 231 90 275
107 44 16 84 33 89 39 12 11 26 12 26 1 0 -4 -24 -33 -52 -64 -29 -31 -77 -83
-106 -115 -29 -32 -86 -93 -125 -136 -110 -120 -126 -137 -217 -236 -115 -126
-131 -143 -239 -259 -82 -88 -112 -128 -119 -154 -1 -5 -2 -9 -3 -10 0 -2 -2
-16 -4 -33 -1 -16 -6 -52 -10 -80 -12 -87 -12 -341 0 -432 17 -123 61 -277 89
-313 7 -8 21 -33 31 -54 42 -83 174 -196 275 -234 162 -62 383 -65 623 -7 66
15 83 26 217 132 15 12 346 272 403 316 15 12 33 27 40 32 7 6 30 24 52 40 22
17 42 32 45 35 8 8 63 52 100 80 18 14 65 50 104 81 210 166 435 342 460 362
16 12 66 51 111 87 45 36 97 76 115 90 19 14 45 34 59 46 14 12 71 56 126 99
199 155 310 262 408 395 136 184 207 372 213 565 8 263 -85 471 -308 692 -58
57 -69 74 -78 117 -14 68 -23 110 -35 164 -3 12 -7 30 -9 40 -5 23 -18 101
-17 107 0 2 -5 19 -10 37 -5 18 -12 47 -15 63 -3 17 -10 50 -15 75 -6 25 -12
52 -14 60 -4 18 -83 395 -96 460 -5 25 -12 61 -15 80 -3 19 -8 38 -11 43 -2 4
-6 20 -9 35 -3 15 -12 61 -20 102 -9 41 -18 86 -20 100 -3 14 -12 54 -20 90
-8 36 -24 108 -34 160 -11 52 -33 160 -50 240 -43 204 -61 292 -66 315 -2 11
-7 34 -11 50 -4 17 -6 33 -5 38 3 10 -24 9 -78 -4 -25 -6 -56 -13 -70 -15 -14
-3 -38 -9 -55 -14 -16 -5 -50 -12 -75 -16 -49 -9 -58 -10 -65 -14 -7 -4 -16
-6 -60 -14 -22 -5 -85 -19 -140 -33 -55 -13 -109 -25 -120 -27 -27 -4 -86 -16
-108 -23 -18 -5 -18 0 -12 69 4 40 9 87 11 103 2 17 6 53 9 80 3 28 7 66 10
85 4 32 12 103 20 175 1 17 5 50 9 75 3 25 8 69 10 98 4 51 4 52 -22 53 -15 0
-36 2 -47 3 -11 2 -56 6 -100 10 -44 4 -93 9 -110 11 -16 2 -61 6 -100 10
-130 12 -150 14 -195 19 -44 6 -70 8 -220 21 -41 3 -86 8 -100 11 -14 2 -59 6
-100 10 -106 7 -150 12 -190 18 -19 3 -69 8 -110 11 -41 3 -84 7 -95 9 -11 2
-60 7 -110 11 -49 4 -103 9 -120 10 -54 5 -159 16 -195 20 -62 8 -150 15 -151
12z"/>
</g>
</svg>
